<?xml version="1.0" encoding="utf-8"?>
<!-- Generator: Adobe Illustrator 16.0.3, SVG Export Plug-In . SVG Version: 6.00 Build 0)  -->
<!DOCTYPE svg PUBLIC "-//W3C//DTD SVG 1.1 Tiny//EN" "http://www.w3.org/Graphics/SVG/1.1/DTD/svg11-tiny.dtd">
<svg version="1.1" baseProfile="tiny" id="Ebene_1" xmlns="http://www.w3.org/2000/svg" xmlns:xlink="http://www.w3.org/1999/xlink"
	 x="0px" y="0px" width="541.401px" height="113.591px" viewBox="152.227 177.926 541.401 113.591" xml:space="preserve">
<path fill="#ffffff" d="M308.73,275.675v-5.142h3.95V248.21h-4.954v-5.142h11.594c0,2.446-0.25,6.411-0.25,6.411
	c1.77-5.656,5.604-7.038,10.07-7.038c0.984,0,1.954,0.135,2.637,0.289L331,249.151c-0.652-0.164-1.386-0.256-2.398-0.256
	c-6.208,0-8.899,5.356-8.899,11.481v10.157h4.766v5.142H308.73L308.73,275.675z"/>
<g>
	<path fill="#ffffff" d="M420.24,270.537v-15.739c0-7.98-3.566-12.481-13.416-12.481c-6.96,0-11.391,2.132-13.146,2.947v7.629h6.271
		v-4.307c1.066-0.438,3.679-1.128,6.125-1.128c5.769,0,7.313,2.822,7.313,6.834v1.068c-13.847,0-21.089,3.726-21.089,11.725
		c0,4.138,2.801,9.342,10.639,9.342c6.479,0,9.93-3.88,10.93-5.555c-0.186,1.454-0.291,3.743-0.291,4.803h10.806v-5.142
		L420.24,270.537z M413.386,262.638c-0.001,4.138-3.176,8.271-8.63,8.271c-3.324,0-5.434-1.943-5.434-4.389
		c0-4.829,6.792-6.52,14.064-6.583L413.386,262.638z"/>
</g>
<g>
	<path fill="#ffffff" d="M175.178,242.316c-5.033,0-9.165,2.506-10.673,5.507c0.011,0.011,0.011-16.755,0.011-16.755l-12.289,0.002
		v5.142h5.267v37.735c3.183,1.246,6.807,2.48,12.478,2.48c14.045,0,18.298-9.593,18.298-19.312
		C188.271,248.699,183.706,242.316,175.178,242.316z M170.788,270.533c-3.055,0-4.959-0.686-6.272-1.294v-11.686
		c0.125-5.204,3.011-9.343,8.529-9.343c5.33,0,8.102,3.7,8.102,9.406C181.146,264.389,178.187,270.533,170.788,270.533z"/>
</g>
<path fill="#ffffff" d="M249.717,248.21h4.891l-0.004,18.308c-0.001,7.335,2.881,10.034,9.368,10.034
	c2.758,0,5.225-0.752,6.981-1.63l0.251-5.141c-1.568,0.626-3.345,1.253-5.226,1.253c-3.261,0-4.348-1.51-4.348-7.467V248.21h8.654
	v-5.142h-8.654v-6.633l-7.023,0.502v6.131h-4.891L249.717,248.21L249.717,248.21z"/>
<path fill="#ffffff" d="M226.828,248.21h4.892l-0.004,18.308c-0.002,7.335,2.881,10.034,9.368,10.034c2.758,0,5.225-0.752,6.98-1.63
	l0.252-5.141c-1.568,0.626-3.345,1.253-5.227,1.253c-3.261,0-4.348-1.51-4.348-7.467V248.21h8.654v-5.142h-8.654v-6.633
	l-7.022,0.502v6.131h-4.892L226.828,248.21L226.828,248.21z"/>
<g>
	<path fill="#ffffff" d="M489.304,259.56c0-10.095-4.953-17.473-14.734-17.473c-10.534,0-15.99,7.754-15.99,17.411
		c0,10.22,6.396,17.097,17.182,17.159c4.892,0,9.218-1.316,11.476-2.257l0.376-5.769c-2.821,1.442-6.396,2.508-10.473,2.508
		c-6.458,0-11.098-4.306-11.159-10.639h23.324L489.304,259.56L489.304,259.56z M481.905,255.735h-15.928
		c0.25-3.951,2.258-8.507,8.215-8.507s7.713,5.183,7.713,7.879V255.735z"/>
</g>
<g>
	<path fill="#ffffff" d="M355.983,242.316c-4.182,0-7.758,1.591-10.431,5.846v-5.094h-11.139v5.142h4.577v38.062h-3.637v5.142
		h15.738v-5.142h-5.204V275.45c1.882,0.686,3.984,0.977,6.208,0.977c11.161,0,17.419-7.837,17.419-18.623
		C369.516,248.441,363.885,242.316,355.983,242.316z M352.159,270.909c-2.634,0-4.829-0.501-6.271-1.38l0.005-9.095
		c0.005-7.587,2.754-12.224,8.46-12.224c5.267,0,8.039,4.577,8.039,10.66C362.392,265.266,358.618,270.909,352.159,270.909z"/>
</g>
<path fill="#ffffff" d="M448.619,252.768h5.895v-8.759c-1.38-0.626-4.327-1.692-9.28-1.692c-11.412,0-17.558,7.273-17.558,17.243
	c0,8.152,4.451,16.867,17.494,16.867c4.076,0,7.588-1.128,8.904-1.692l0.376-6.082c-1.63,0.94-5.204,1.881-8.339,1.881
	c-8.653,0-11.413-6.019-11.413-11.663c0-6.208,3.323-11.036,9.782-11.036c1.566,0,3.136,0.25,4.139,0.564V252.768z"/>
<g>
	<path fill="#ffffff" d="M303.707,259.56c0-10.095-4.953-17.473-14.735-17.473c-10.535,0-15.99,7.754-15.99,17.411
		c0,10.22,6.396,17.097,17.181,17.159c4.892,0,9.218-1.316,11.475-2.257l0.376-5.769c-2.822,1.442-6.395,2.508-10.471,2.508
		c-6.458,0-11.099-4.306-11.161-10.639h23.326L303.707,259.56L303.707,259.56z M296.308,255.735h-15.927
		c0.251-3.951,2.257-8.507,8.214-8.507c5.957,0,7.713,5.183,7.713,7.879V255.735z"/>
</g>
<polygon fill="#ffffff" points="373.21,275.675 388.572,275.675 388.572,270.533 384.182,270.533 384.181,231.068 371.453,231.07
	371.453,236.211 377.159,236.211 377.159,270.533 373.21,270.533 "/>
<g>
	<path fill="#ffffff" d="M223.707,259.56c0-10.095-4.954-17.473-14.736-17.473c-10.534,0-15.99,7.754-15.99,17.411
		c0,10.22,6.396,17.097,17.181,17.159c4.891,0,9.218-1.316,11.475-2.257l0.376-5.769c-2.821,1.442-6.395,2.508-10.471,2.508
		c-6.458,0-11.099-4.306-11.161-10.639h23.326V259.56L223.707,259.56z M216.308,255.735h-15.927
		c0.251-3.951,2.257-8.507,8.214-8.507c5.957,0,7.713,5.183,7.713,7.879V255.735z"/>
</g>
<path fill="#ffffff" d="M551.225,275.6h14.64v-2.801h-6.11l0.127-11.264c0.128-9.229,5.156-16.357,10.884-16.357
	c1.654,0,2.8,0.318,4.011,0.828l0.509-3.183c-1.273-0.318-2.546-0.7-4.583-0.7c-5.919,0-9.388,4.884-10.946,9.697
	c0,0,0.382-5.878,0.382-8.934h-9.609v2.801h6.173l-0.254,27.112h-5.22v2.801H551.225z"/>
<circle fill="#ffffff" cx="503.468" cy="271.467" r="4.062"/>
<polygon fill="#8E949C" points="652.461,223.981 680.16,256.335 652.211,230.629 661.396,253.748 646.557,228.963 622.613,249.781
	643.698,225.369 609.51,228.518 640.191,222.448 613.762,188.596 644.896,218.939 635.768,189.718 648.38,219.134 676.463,194.198
	653.752,220.287 687.771,211.046 "/>
<path fill="#C2D049" d="M649.48,224.711c0.013,9.467-0.012,42.067-0.012,42.067s-28.251-39.964-4.54-44.245
	c-8.395,0.01-42.784-0.006-42.784-0.006s37.912-29.465,44.147-2.534c-0.014-9.467,0.01-42.067,0.01-42.067
	s28.203,39.895,4.603,44.234c8.5-0.008,42.724,0.017,42.724,0.017S655.715,251.642,649.48,224.711z"/>
<g>
	<path fill="#A6B765" d="M642.982,212.812l-1.934-6.186c-1.06,0.697-2.161,1.608-3.283,2.682
		C639.751,209.941,641.523,211.066,642.982,212.812z"/>
	<path fill="#A6B765" d="M624.186,227.166c-3.085,4.896-5.157,8.666-5.157,8.666l17.848-8.263c0.343-0.605,0.759-1.167,1.242-1.687
		L624.186,227.166z"/>
	<path fill="#A6B765" d="M646.289,205.336c-1.088-0.385-2.323-0.208-3.654,0.399l3.654,8.522
		C646.288,211.625,646.289,208.557,646.289,205.336z"/>
	<path fill="#A6B765" d="M627.202,222.536c-0.653,0.968-1.283,1.924-1.884,2.855l14.43-2.854
		C636.259,222.537,631.814,222.536,627.202,222.536z"/>
	<path fill="#A6B765" d="M649.484,233.853c0,1.815-0.001,3.754-0.001,5.747c0.988,0.35,2.101,0.235,3.295-0.245L649.484,233.853z"/>
	<path fill="#A6B765" d="M657.086,219.381l16.233-4.409c2.104-3.463,3.427-5.869,3.427-5.869l-18.047,8.354
		C658.262,218.161,657.729,218.805,657.086,219.381z"/>
	<path fill="#A6B765" d="M652.646,231.723l2.503,6.299c0.872-0.614,1.77-1.364,2.682-2.225l-0.854-0.784
		C655.344,234.319,653.877,233.252,652.646,231.723z"/>
	<path fill="#A6B765" d="M668.732,222.162c1.272-1.896,2.455-3.742,3.501-5.423l-14.798,5.42
		C660.721,222.159,664.664,222.161,668.732,222.162z"/>
	<path fill="#8A9C59" d="M646.293,219.994c-0.002-1.44-0.003-3.421-0.004-5.736l-3.654-8.522c-0.515,0.235-1.044,0.535-1.585,0.891
		l1.934,6.186C644.434,214.548,645.575,216.894,646.293,219.994z"/>
	<path fill="#8A9C59" d="M650.904,222.16c1.489-0.001,3.783-0.002,6.531-0.001l14.798-5.42c0.381-0.613,0.743-1.205,1.086-1.767
		l-16.233,4.409C655.622,220.696,653.606,221.664,650.904,222.16z"/>
	<path fill="#8A9C59" d="M657.83,235.797c0.117-0.11,0.234-0.227,0.352-0.34c-0.41-0.125-0.811-0.277-1.203-0.444L657.83,235.797z"
		/>
	<path fill="#8A9C59" d="M644.93,222.533c-1.229,0.001-3.026,0.002-5.182,0.003l-14.43,2.854c-0.392,0.604-0.77,1.197-1.134,1.775
		l13.933-1.283C639.62,224.27,641.826,223.094,644.93,222.533z"/>
	<path fill="#8A9C59" d="M649.48,224.711c0.003,2.106,0.004,5.359,0.004,9.141l3.294,5.501c0.761-0.306,1.553-0.756,2.37-1.332
		l-2.504-6.299C651.263,230.004,650.175,227.709,649.48,224.711z"/>
	<path fill="#94AC36" d="M649.48,224.711c0.693,2.998,1.781,5.292,3.164,7.011c1.231,1.53,2.698,2.597,4.332,3.29
		c0.395,0.167,0.793,0.319,1.204,0.444c3.584-3.476,7.353-8.533,10.552-13.294c-4.068-0.001-8.013-0.003-11.297-0.003
		c-2.749,0-5.042,0-6.531,0.001c2.701-0.497,4.718-1.464,6.182-2.779c0.642-0.576,1.176-1.22,1.613-1.923l-7.867,3.642
		c0-10.256-1.801-14.793-4.543-15.764c0,3.22-0.001,6.289,0,8.921c0.001,2.315,0.002,4.296,0.004,5.736
		c-0.718-3.1-1.859-5.445-3.311-7.182c-1.459-1.745-3.231-2.871-5.217-3.503c-3.576,3.423-7.349,8.458-10.563,13.228
		c4.611,0,9.057,0.001,12.546,0c2.154,0,3.952-0.001,5.182-0.003c-3.104,0.561-5.31,1.736-6.812,3.35
		c-0.483,0.52-0.899,1.081-1.242,1.687l8.065-3.734c0,10.256,1.801,14.793,4.543,15.764c0-1.993,0.001-3.931,0.001-5.747
		C649.484,230.071,649.483,226.817,649.48,224.711z"/>
</g>
<path fill="#ffffff" d="M529.841,244.965c7.799,0,11.859,5.937,11.859,14.277c0,8.342-4.062,14.279-11.859,14.279
	s-11.858-5.937-11.858-14.279C517.981,250.902,522.042,244.965,529.841,244.965z M529.841,276.15
	c9.901,0,14.998-7.627,14.998-16.908c0-9.28-5.097-16.907-14.998-16.907c-9.9,0-14.998,7.627-14.998,16.907
	C514.843,268.523,519.939,276.15,529.841,276.15z"/>
<path fill="#ffffff" d="M598.513,276.56l-9.293-1.4c-2.862,0.51-8.782,2.482-8.782,7.128c0,3.119,4.073,6.428,11.902,6.428
	c5.854,0,12.155-1.973,12.155-7.128C604.495,278.215,602.141,277.388,598.513,276.56z M581.519,253.33
	c0,4.71,3.12,9.229,9.739,9.229c5.791,0,9.354-3.691,9.354-9.165c0-4.964-3.563-9.037-9.737-9.037
	C585.593,244.356,581.519,247.793,581.519,253.33z M603.236,257.62c-1.56,4.317-5.571,7.739-11.471,7.739
	c-5.282,0-7.766,1.845-7.766,3.627c0,1.719,1.974,2.482,5.347,3.055l10.564,1.91c4.01,0.7,7.893,1.909,7.893,7.382
	c0,4.519-3.69,10.184-15.655,10.184c-8.466,0-15.021-2.928-15.021-8.847c0-4.136,4.136-7.637,8.719-8.337
	c-2.164-0.509-5.154-1.718-5.154-4.9c0-3.31,3.245-4.583,5.854-5.027c-3.055-0.827-8.337-3.31-8.337-10.819
	c0-6.811,4.9-12.284,12.665-12.284c0.235,0,0.468,0.005,0.698,0.015h14.177v2.735h-6.435c2.857,2.248,4.527,5.677,4.527,9.534
	C603.844,255.134,603.619,256.469,603.236,257.62z"/>
</svg>
